Coordinates
version=1
nRows=14
nColumns=40
inDegrees=yes

Units are S.I. units (second, meters, Newtons, ...)
Angles are in degrees.

endheader
time	pelvis_tilt	pelvis_list	pelvis_rotation	pelvis_tx	pelvis_ty	pelvis_tz	hip_flexion_r	hip_adduction_r	hip_rotation_r	knee_angle_r	knee_angle_r_beta	ankle_angle_r	subtalar_angle_r	mtp_angle_r	hip_flexion_l	hip_adduction_l	hip_rotation_l	knee_angle_l	knee_angle_l_beta	ankle_angle_l	subtalar_angle_l	mtp_angle_l	lumbar_extension	lumbar_bending	lumbar_rotation	arm_flex_r	arm_add_r	arm_rot_r	elbow_flex_r	pro_sup_r	wrist_flex_r	wrist_dev_r	arm_flex_l	arm_add_l	arm_rot_l	elbow_flex_l	pro_sup_l	wrist_flex_l	wrist_dev_l
     56.20228571	     -6.17941767	     -4.77238477	     -1.73835016	      0.88401080	      0.93001558	      0.43343423	     36.31444985	     -1.97996715	     -5.61081801	     46.61929896	     46.61929896	      2.96210875	    -15.88813185	      5.14876123	     16.04345222	     -4.95661704	     -3.95682113	     21.94056265	     21.94056265	     14.09270015	    -13.67349171	      2.24579783	    -11.58300870	      5.65263327	      2.48440484	      2.17058852	    -15.55324383	      4.13660736	     24.15950682	     46.87679543	      0.00000000	      0.00000000	     17.32428676	    -14.67275117	     -3.24314574	     60.30497695	     46.41777807	      0.00000000	      0.00000000
     56.21457143	     -6.36904073	     -4.88576622	     -2.03792115	      0.88380450	      0.92972899	      0.43404606	     35.98247043	     -1.69965801	     -6.05618049	     42.29696163	     42.29696163	      1.09226213	    -15.37826850	     -0.69917354	     15.75588122	     -5.17862369	     -4.23209145	     21.92481764	     21.92481764	     14.45736640	    -13.50299023	      2.13122548	    -11.64225802	      5.79247403	      1.75461940	      2.08702732	    -15.17600286	     -0.48482904	     21.23472449	     47.35341573	      0.00000000	      0.00000000	     15.98485967	    -15.10895169	     -5.64792845	     65.62062215	     46.84174389	      0.00000000	      0.00000000
     56.22685714	     -6.73594643	     -5.05312127	     -2.33461280	      0.88351058	      0.92927116	      0.43491775	     35.95742538	     -1.26108197	     -6.38694416	     38.36486591	     38.36486591	      1.31476515	    -13.86285235	     -0.36286636	     15.61109746	     -5.43581352	     -4.34096086	     21.77798783	     21.77798783	     14.68870170	    -13.61126882	      2.06844124	    -11.38473678	      6.07606501	      1.82281290	      0.69056757	    -15.54326121	     -0.61116885	     20.69675549	     47.37215030	      0.00000000	      0.00000000	     16.43052087	    -15.37201308	     -5.91622862	     66.64090087	     46.88536589	      0.00000000	      0.00000000
     56.23914286	     -6.88788904	     -5.16479710	     -2.60522261	      0.88353344	      0.92893335	      0.43578039	     35.57837782	     -0.97857055	     -7.00350508	     34.41197866	     34.41197866	      1.49475298	    -11.79651630	     -0.70385647	     15.26321150	     -5.65948475	     -4.56847008	     21.74638467	     21.74638467	     15.02252300	    -13.48860924	      1.89136531	    -11.50160474	      6.23473850	      1.81046973	     -0.81317428	    -15.93114001	     -1.78006231	     20.87057848	     47.43563177	      0.00000000	      0.00000000	     15.86453353	    -15.52391715	     -6.84651211	     70.58777120	     47.05696901	      0.00000000	      0.00000000
     56.25142857	     -7.10614893	     -5.27298338	     -2.88692964	      0.88365477	      0.92853825	      0.43686757	     35.19181883	     -0.58439061	     -7.48060606	     30.50841212	     30.50841212	      1.74254693	     -9.85532337	     -0.28505596	     14.93371308	     -5.86294872	     -4.71359316	     21.62480045	     21.62480045	     15.28776365	    -13.56172407	      1.80297867	    -11.41465047	      6.42087772	      1.98308879	     -2.16236994	    -16.26056000	     -2.00942216	     20.41459754	     47.45828797	      0.00000000	      0.00000000	     16.19072950	    -15.59648757	     -7.19622310	     71.93594478	     47.11566391	      0.00000000	      0.00000000
     56.26371429	     -7.30712020	     -5.24447809	     -3.18548536	      0.88400719	      0.92803149	      0.43806544	     34.81837583	     -0.37296908	     -8.12626927	     26.95503081	     26.95503081	      2.13276273	     -7.43210021	      0.41334899	     14.52661978	     -5.93798234	     -4.98843484	     21.42683958	     21.42683958	     15.57175138	    -13.47896903	      1.66704583	    -11.37128568	      6.39836146	      2.03956963	     -3.56566169	    -16.47776696	     -2.62153721	     20.54633957	     47.48168478	      0.00000000	      0.00000000	     15.97805120	    -15.69504578	     -7.81681532	     74.48572517	     47.22251517	      0.00000000	      0.00000000
     56.27600000	     -7.49162011	     -5.22156978	     -3.46158241	      0.88456833	      0.92749837	      0.43942699	     34.43000709	     -0.10220311	     -8.66073110	     23.75624414	     23.75624414	      2.62795282	     -5.30378776	      1.89976411	     14.08258652	     -6.01137637	     -5.20294337	     21.21660647	     21.21660647	     15.82146240	    -13.49709146	      1.53132609	    -11.31189101	      6.39763836	      1.85436510	     -4.78616375	    -16.63208544	     -3.40848994	     20.95885468	     47.50093608	      0.00000000	      0.00000000	     15.58338900	    -15.91174390	     -8.54953303	     76.76316150	     47.34115335	      0.00000000	      0.00000000
     56.28828571	     -7.63417042	     -5.18288079	     -3.72297211	      0.88531911	      0.92694860	      0.44099700	     33.94927347	      0.22149979	     -8.97981135	     20.81611018	     20.81611018	      2.71383821	     -3.80945561	      2.79073272	     13.57965731	     -6.06542332	     -5.38219194	     20.99866405	     20.99866405	     16.09672621	    -13.55929493	      1.45541575	    -11.20773323	      6.36876761	      1.89182665	     -5.83690565	    -16.72130305	     -3.58584761	     20.76199927	     47.50855942	      0.00000000	      0.00000000	     15.71458468	    -16.01935047	     -8.79419185	     77.68121461	     47.38231905	      0.00000000	      0.00000000
     56.30057143	     -7.65573947	     -5.11206833	     -3.94747759	      0.88636290	      0.92647773	      0.44255392	     33.41955528	      0.39853219	     -9.49412439	     18.51681798	     18.51681798	      2.94239002	     -2.05338894	      3.89767254	     12.88484347	     -6.07183838	     -5.59395410	     20.70541678	     20.70541678	     16.40885070	    -13.49421482	      1.34569659	    -11.26114670	      6.31822121	      1.94035193	     -6.95816166	    -16.79082310	     -3.87141701	     20.83491813	     47.51020339	      0.00000000	      0.00000000	     15.67950102	    -16.02813308	     -9.05948740	     79.06231900	     47.43475904	      0.00000000	      0.00000000
     56.31285714	     -7.75950515	     -4.90749808	     -4.13551138	      0.88751200	      0.92569476	      0.44421053	     33.22293702	      0.32704396	    -10.16649466	     17.19166726	     17.19166726	      3.88982128	     -0.14614972	      6.38328013	     12.29035033	     -5.95116794	     -5.87954403	     20.41414930	     20.41414930	     16.67205561	    -13.36436698	      1.13502162	    -11.20705604	      6.05979322	      1.72203730	     -8.13529325	    -16.76172411	     -4.75478286	     22.04054573	     47.49003932	      0.00000000	      0.00000000	     15.07594564	    -16.22574452	     -9.62677383	     81.31244244	     47.54327617	      0.00000000	      0.00000000
     56.32514286	     -7.78181402	     -4.83086311	     -4.25589238	      0.88890312	      0.92502881	      0.44598918	     32.73742224	      0.45190790	    -10.39555467	     15.93380114	     15.93380114	      3.97651323	      0.58779723	      7.18993913	     11.58730401	     -5.94406775	     -6.01789572	     20.10916119	     20.10916119	     16.98644927	    -13.31538937	      1.07749616	    -11.14176705	      6.01204849	      1.70162185	     -8.96051381	    -16.70622260	     -4.98705473	     22.07632439	     47.48703068	      0.00000000	      0.00000000	     15.07405284	    -16.20649046	     -9.76711330	     81.86146431	     47.57514655	      0.00000000	      0.00000000
     56.33742857	     -7.87429421	     -4.66663198	     -4.35644465	      0.89041777	      0.92411335	      0.44785223	     32.41314156	      0.40973533	    -10.60232594	     15.28880881	     15.28880881	      3.98250746	      1.28559825	      7.63770078	     10.94847699	     -5.85135184	     -6.17383028	     19.78316198	     19.78316198	     17.32910834	    -13.16742343	      1.00942361	    -10.97996391	      5.82348080	      1.62437283	     -9.74387596	    -16.55585545	     -5.21053492	     22.22390298	     47.47996723	      0.00000000	      0.00000000	     14.96811885	    -16.19286349	     -9.83074746	     82.42788320	     47.59950020	      0.00000000	      0.00000000
     56.34971429	     -7.99352119	     -4.52727299	     -4.35927971	      0.89205731	      0.92290564	      0.44971355	     32.17543359	      0.32857877	    -10.62676025	     15.19918724	     15.19918724	      3.94262696	      1.42729067	      7.70139141	     10.47423357	     -5.78557638	     -6.17464642	     19.70501729	     19.70501729	     17.71967853	    -13.16700877	      0.88676904	    -10.72443404	      5.71609432	      1.40222337	    -10.30676366	    -16.37275495	     -5.25614392	     22.14037129	     47.47877301	      0.00000000	      0.00000000	     14.85522957	    -16.22246415	     -9.85557305	     82.53012042	     47.60438848	      0.00000000	      0.00000000
     56.36200000	     -7.95545704	     -4.34664492	     -4.35342361	      0.89412775	      0.92198953	      0.45158682	     31.59041227	      0.12143264	    -10.96043291	     15.17790482	     15.17790482	      3.62603531	      2.15943684	      6.94382960	      9.60665772	     -5.66074806	     -6.36748764	     19.26637301	     19.26637301	     18.22335054	    -12.76792681	      1.15354764	    -10.68815288	      5.55815531	      1.40835699	    -11.47013175	    -16.12152029	     -6.48352453	     23.91352233	     47.43093510	      0.00000000	      0.00000000	     14.50359772	    -16.14159034	     -9.71165614	     83.41458748	     47.66271710	      0.00000000	      0.00000000
